:SAMPLES-PER-SECOND 30
:FULLY-SPECIFIED
:DEGREES
271
root  6.936133377 36.79888868 1.991335614 1.587997437 -38.41700745 -6.591995239
lowerback  11.33670044 2.637739897 -6.962769985
upperback  4.595870018 2.58781004 -2.502059937
thorax  -1.722030044 1.200420022 0.9739450216
lowerneck  -4.065720081 4.561359882 -5.415070057
upperneck  5.860079765 5.902329922 9.145990372
head  2.154059887 3.084369898 4.172269821
lclavicle  0 -9.442270133e-015 7.951389973e-016
lhumerus  14.32209969 -20.67959976 81.32299805
lradius  1.583297168e-031 -3.15626585e-031 116.6399994
lwrist  -7.062250077e-031 -1.765562519e-031 14.07470036
lhand  -1.496451383e-031 -27.76390076 20.11240005
lfingers  90 7.125020027 -90
lthumb  89.89689403 5.08795885 91.16245106
rclavicle  0 -9.442270133e-015 7.951389973e-016
rhumerus  2.160969973 6.170000076 -82.4285965
rradius  -2.316207697e-031 2.665337866e-031 130.9909973
rwrist  7.062250077e-031 1.324171889e-031 -34.46829987
rhand  -7.920061211e-032 -33.2840004 9.303460121
rfingers  -90 -7.125020027 -90
rthumb  -92.93752616 -24.25625642 -97.11982154
rfemur  -8.900959969 9.312930107 11.13269997
rtibia  -0 0 63.69020081
rfoot  -0 -15.50080013 -18.96699905
rtoes  5.373923086 19.29304026 -105.8922705
lfemur  -31.37039948 -3.820820093 6.512700081
ltibia  -0 0 52.81510162
lfoot  -0 -11.87769985 -7.620019913
ltoes  -4.250644065 -19.5611806 -102.515957
272
root  7.012577507 37.13711115 1.972235469 2.335998535 -37.8809967 -6.212997437
lowerback  11.58370018 2.658960104 -6.698609829
upperback  4.690219879 2.630630016 -2.347019911
thorax  -1.757740021 1.222440004 0.9752820134
lowerneck  -4.190420151 4.444849968 -5.555950165
upperneck  5.332349777 5.807970047 8.837280273
head  2.013910055 3.026400089 4.0759902
lclavicle  0 -9.442270133e-015 7.951389973e-016
lhumerus  13.02939987 -20.67329979 81.63909912
lradius  1.559123158e-031 -3.168276979e-031 116.2020035
lwrist  0 -0 13.15909958
lhand  -1.496451383e-031 -27.76390076 20.11240005
lfingers  90 7.125020027 -90
lthumb  89.89689403 5.08795885 91.16245106
rclavicle  0 -9.442270133e-015 7.951389973e-016
rhumerus  1.392459989 6.135089874 -82.62490082
rradius  -2.300023247e-031 2.679316536e-031 130.6439972
rwrist  7.062250077e-031 1.765562519e-031 -33.41500092
rhand  -7.920061211e-032 -33.2840004 9.303460121
rfingers  -90 -7.125020027 -90
rthumb  -92.93752616 -24.25625642 -97.11982154
rfemur  -9.586569786 8.48762989 11.06890011
rtibia  -0 0 62.58449936
rfoot  -0 -15.19699955 -20.24469948
rtoes  5.373923086 19.29304026 -105.8922705
lfemur  -31.68619919 -4.052599907 6.120049953
ltibia  -0 0 50.86909866
lfoot  -0 -10.92259979 -7.256470203
ltoes  -4.250644065 -19.5611806 -102.515957
273
root  7.086889012 37.49510998 1.96138442 3.074005127 -37.38999939 -5.764007568
lowerback  11.74890041 2.651619911 -6.409339905
upperback  4.716460228 2.643490076 -2.238759995
thorax  -1.815009952 1.232450008 0.9195520282
lowerneck  -4.184470177 4.422920227 -5.73898983
upperneck  4.770760059 5.832509995 8.633509636
head  1.825520039 3.027829885 4.020699978
lclavicle  0 -9.442270133e-015 7.951389973e-016
lhumerus  11.62240028 -20.50930023 82.03130341
lradius  1.545284144e-031 -3.175049756e-031 115.9520035
lwrist  -1.412450015e-030 -1.765562519e-031 13.22369957
lhand  -1.496451383e-031 -27.76390076 20.11240005
lfingers  90 7.125020027 -90
lthumb  89.89689403 5.08795885 91.16245106
rclavicle  0 -9.442270133e-015 7.951389973e-016
rhumerus  0.661435008 6.046390057 -82.98529816
rradius  -2.283472546e-031 2.693435941e-031 130.2910004
rwrist  1.412450015e-030 1.324171889e-031 -32.4754982
rhand  -7.920061211e-032 -33.2840004 9.303460121
rfingers  -90 -7.125020027 -90
rthumb  -92.93752616 -24.25625642 -97.11982154
rfemur  -10.2677002 7.635379791 10.94349957
rtibia  -0 0 61.39599991
rfoot  -0 -15.01140022 -21.46389961
rtoes  5.373923086 19.29304026 -105.8922705
lfemur  -32.05450058 -4.13105011 5.612110138
ltibia  -0 0 49.05849838
lfoot  -0 -9.716079712 -6.667379856
ltoes  -4.250644065 -19.5611806 -102.515957
274
root  7.162733153 37.87666681 1.955842221 3.529006958 -36.9730072 -4.634994507
lowerback  11.73690033 2.633519888 -6.664519787
upperback  4.721360207 2.592289925 -2.271490097
thorax  -1.807899952 1.204929948 1.034880042
lowerneck  -4.187880039 4.413469791 -5.741159916
upperneck  4.190209866 5.867750168 8.273229599
head  1.641659975 3.035140038 3.876830101
lclavicle  0 -9.442270133e-015 7.951389973e-016
lhumerus  10.10519981 -20.15589905 82.5463028
lradius  1.539185608e-031 -3.178010651e-031 115.8420029
lwrist  -7.062250077e-031 -0 13.68519974
lhand  -1.496451383e-031 -27.76390076 20.11240005
lfingers  90 7.125020027 -90
lthumb  89.89689403 5.08795885 91.16245106
rclavicle  0 -9.442270133e-015 7.951389973e-016
rhumerus  0.1760639995 5.953720093 -83.27729797
rradius  -2.266409731e-031 2.707809256e-031 129.9290009
rwrist  0 4.193210983e-031 -31.86389923
rhand  -7.920061211e-032 -33.2840004 9.303460121
rfingers  -90 -7.125020027 -90
rthumb  -92.93752616 -24.25625642 -97.11982154
rfemur  -11.07740021 6.711520195 10.14649963
rtibia  -0 0 60.15530014
rfoot  -0 -15.31869984 -22.24690056
rtoes  5.373923086 19.29304026 -105.8922705
lfemur  -32.56069946 -4.208799839 4.477650166
ltibia  -0 0 47.39089966
lfoot  4.463225488e-032 -8.525540352 -5.937139988
ltoes  -4.250644065 -19.5611806 -102.515957
